<svg fill="none" height="187" viewBox="0 0 490 187" width="490" xmlns="http://www.w3.org/2000/svg"
     xmlns:xlink="http://www.w3.org/1999/xlink">
  <linearGradient id="a">
    <stop offset="0" stop-color="#fff" stop-opacity="0"/>
    <stop offset="1" stop-color="#fff"/>
  </linearGradient>
  <linearGradient id="b" gradientUnits="userSpaceOnUse" x1="-392.769" x2="-391.107" xlink:href="#a" y1="171.161"
                  y2="171.161"/>
  <linearGradient id="c" gradientUnits="userSpaceOnUse" x1="-392.774" x2="-391.111" xlink:href="#a" y1="108.832"
                  y2="108.832"/>
  <linearGradient id="d" gradientUnits="userSpaceOnUse" x1="-392.775" x2="-391.113" xlink:href="#a" y1="104.782"
                  y2="104.782"/>
  <linearGradient id="e" gradientUnits="userSpaceOnUse" x1="-392.772" x2="-391.11" xlink:href="#a" y1="171.161"
                  y2="171.161"/>
  <linearGradient id="f" gradientUnits="userSpaceOnUse" x1="-392.77" x2="-391.107" xlink:href="#a" y1="108.833"
                  y2="108.833"/>
  <linearGradient id="g" gradientUnits="userSpaceOnUse" x1="-392.768" x2="-391.106" xlink:href="#a" y1="104.782"
                  y2="104.782"/>
  <linearGradient id="h" gradientUnits="userSpaceOnUse" x1="-392.768" x2="-391.105" xlink:href="#a" y1="171.161"
                  y2="171.161"/>
  <clipPath id="i">
    <path d="m0 0h490v187h-490z"/>
  </clipPath>
  <g clip-path="url(#i)">
    <path
      d="m72.2432 126.97c-4.0064 0-7.2481 3.294-7.2481 7.329 0 1.748.6317 3.328 1.6458 4.588l-104.8323 75.104.9642 1.378 105.0816-75.271c1.2302.958 2.7431 1.546 4.4055 1.546 4.0064 0 7.2481-3.294 7.2481-7.329 0-4.034-3.2583-7.328-7.2481-7.328zm0 12.993c-3.0921 0-5.5857-2.538-5.5857-5.648 0-3.109 2.5103-5.648 5.5857-5.648 3.0755 0 5.5857 2.539 5.5857 5.648 0 3.11-2.5102 5.648-5.5857 5.648z"
      fill="url(#b)"/>
    <path
      d="m195.341 92.4097c4.006 0 7.248-3.2946 7.248-7.3288s-3.259-7.3288-7.248-7.3288c-3.99 0-7.248 3.2946-7.248 7.3288 0 1.4624.432 2.8408 1.18 3.9838l-56.888 40.7453v-42.8465c0-7.3624.964-15.1955 12.485-23.079 10.456-7.144 57.918-38.1738 65.449-43.0989 1.313 1.3783 3.159 2.2524 5.22 2.2524 4.007 0 7.248-3.2946 7.248-7.3288s-3.258-7.32883-7.248-7.32883-7.248 3.29463-7.248 7.32883c0 1.3615.399 2.639 1.047 3.7316-7.83 5.1101-54.959 35.9382-65.383 43.0485-12.185 8.3374-13.216 16.9941-13.216 24.4574v44.0403l-107.3757 76.919.9642 1.378 166.0425-118.9418c1.297 1.2607 3.059 2.0507 5.004 2.0507zm20.165-82.3484c3.092 0 5.586 2.5382 5.586 5.6479s-2.511 5.6479-5.586 5.6479c-3.076 0-5.586-2.5382-5.586-5.6479s2.51-5.6479 5.586-5.6479zm-20.165 69.3549c3.075 0 5.585 2.5382 5.585 5.6479s-2.51 5.6479-5.585 5.6479c-3.076 0-5.586-2.5382-5.586-5.6479s2.51-5.6479 5.586-5.6479z"
      fill="url(#c)"/>
    <path
      d="m356.777 1.89257c-4.006 0-7.248 3.29461-7.248 7.32882 0 1.74821.632 3.32821 1.646 4.60571l-116.752 83.6428v-26.441c0-8.6063 2.095-15.4813 12.518-23.079 10.257-7.497 46.232-31.7863 51.319-35.2154 1.313 1.3784 3.159 2.2357 5.187 2.2357 4.006 0 7.248-3.2947 7.248-7.32887 0-4.03422-3.258-7.32883-7.248-7.32883s-7.248 3.29461-7.248 7.32883c0 1.37835.399 2.65587 1.064 3.76527-5.353 3.614-41.062 27.7352-51.303 35.1985-10.955 8.0012-13.216 15.5654-13.216 24.4407v27.6343l-152.5604 109.2769.9642 1.378 99.5462-71.304c2.925.874 22.21 6.572 28.992 8.875 2.211.739 4.954 1.277 8.229 1.277 6.932 0 16.309-2.403 28.378-10.371 15.859-10.472 90.618-63.5221 97.268-68.2455 1.28 1.1599 2.959 1.8827 4.804 1.8827 4.007 0 7.248-3.2946 7.248-7.3288 0-4.0343-3.258-7.3289-7.248-7.3289-3.989 0-7.248 3.2946-7.248 7.3289 0 1.5632.499 3.0088 1.33 4.2023-7.73 5.4798-81.359 57.7233-97.052 68.0943-17.189 11.346-28.61 11.111-35.16 8.892-6.168-2.084-22.543-6.959-27.796-8.506l169.966-121.7488c1.23.9581 2.743 1.5464 4.405 1.5464 4.007 0 7.249-3.2946 7.249-7.32878 0-4.03421-3.259-7.32883-7.249-7.32883zm-53.33.06723c3.092 0 5.585 2.5382 5.585 5.64791 0 3.10969-2.51 5.64789-5.585 5.64789-3.076 0-5.586-2.5382-5.586-5.64789 0-3.10971 2.51-5.64791 5.586-5.64791zm44.902 56.479c3.092 0 5.585 2.5382 5.585 5.6479s-2.51 5.6479-5.585 5.6479c-3.076 0-5.586-2.5382-5.586-5.6479s2.51-5.6479 5.586-5.6479zm8.412-43.5527c-3.076 0-5.586-2.5382-5.586-5.6479 0-3.10971 2.51-5.6479 5.586-5.6479 3.075 0 5.585 2.53819 5.585 5.6479 0 3.1097-2.51 5.6479-5.585 5.6479z"
      fill="url(#d)"/>
    <path
      d="m319.06 126.97c-4.007 0-7.249 3.294-7.249 7.329 0 1.748.632 3.328 1.646 4.588l-104.832 75.104.964 1.378 105.082-75.271c1.23.958 2.743 1.546 4.405 1.546 4.007 0 7.248-3.294 7.248-7.329 0-4.034-3.258-7.328-7.248-7.328zm0 12.993c-3.092 0-5.586-2.538-5.586-5.648 0-3.109 2.51-5.648 5.586-5.648 3.075 0 5.585 2.539 5.585 5.648 0 3.11-2.51 5.648-5.585 5.648z"
      fill="url(#e)"/>
    <path
      d="m439.472 92.4102c4.006 0 7.248-3.2946 7.248-7.3288s-3.259-7.3288-7.248-7.3288c-3.99 0-7.249 3.2946-7.249 7.3288 0 1.4624.433 2.8408 1.181 3.9838l-56.888 40.7458v-42.847c0-7.3624.964-15.1955 12.484-23.079 10.457-7.144 57.919-38.1738 65.45-43.0989 1.313 1.3783 3.159 2.2524 5.22 2.2524 4.006 0 7.248-3.2946 7.248-7.3288s-3.258-7.32884-7.248-7.32884-7.248 3.29464-7.248 7.32884c0 1.3615.399 2.639 1.047 3.7316-7.83 5.11-54.96 35.9382-65.383 43.0485-12.185 8.3374-13.216 16.9941-13.216 24.4574v44.0398l-107.376 76.919.964 1.379 166.043-118.9423c1.297 1.2607 3.059 2.0507 5.004 2.0507zm20.165-82.3484c3.092 0 5.585 2.5382 5.585 5.6479s-2.51 5.6479-5.585 5.6479c-3.076 0-5.586-2.5382-5.586-5.6479s2.51-5.6479 5.586-5.6479zm-20.165 69.3549c3.075 0 5.585 2.5382 5.585 5.6479s-2.51 5.6479-5.585 5.6479c-3.076 0-5.586-2.5382-5.586-5.6479s2.51-5.6479 5.586-5.6479z"
      fill="url(#f)"/>
    <path
      d="m600.928 1.89257c-4.007 0-7.249 3.29461-7.249 7.32882 0 1.74821.632 3.32821 1.646 4.60571l-116.752 83.6428v-26.441c0-8.6063 2.095-15.4813 12.518-23.079 10.258-7.497 46.232-31.7863 51.319-35.2154 1.314 1.3784 3.159 2.2357 5.187 2.2357 4.007 0 7.248-3.2947 7.248-7.32887 0-4.03422-3.258-7.32883-7.248-7.32883s-7.248 3.29461-7.248 7.32883c0 1.37835.399 2.65587 1.064 3.76527-5.353 3.614-41.062 27.7352-51.302 35.1985-10.956 8.0012-13.217 15.5654-13.217 24.4407v27.6343l-152.56 109.2769.964 1.378 99.546-71.304c2.926.874 22.21 6.572 28.993 8.875 2.211.739 4.954 1.277 8.229 1.277 6.932 0 16.308-2.403 28.377-10.371 15.86-10.472 90.619-63.5221 97.268-68.2455 1.28 1.1599 2.959 1.8827 4.805 1.8827 4.006 0 7.248-3.2946 7.248-7.3288 0-4.0343-3.258-7.3289-7.248-7.3289s-7.248 3.2946-7.248 7.3289c0 1.5632.498 3.0088 1.33 4.2023-7.731 5.4798-81.359 57.7233-97.053 68.0943-17.189 11.346-28.61 11.111-35.16 8.892-6.167-2.084-22.542-6.959-27.795-8.506l169.965-121.7488c1.231.9581 2.743 1.5464 4.406 1.5464 4.006 0 7.248-3.2946 7.248-7.32878 0-4.03421-3.258-7.32883-7.248-7.32883zm-53.331.06723c3.092 0 5.586 2.5382 5.586 5.64791 0 3.10969-2.51 5.64789-5.586 5.64789-3.075 0-5.586-2.5382-5.586-5.64789 0-3.10971 2.511-5.64791 5.586-5.64791zm44.902 56.479c3.092 0 5.586 2.5382 5.586 5.6479s-2.51 5.6479-5.586 5.6479c-3.075 0-5.586-2.5382-5.586-5.6479s2.511-5.6479 5.586-5.6479zm8.412-43.5527c-3.076 0-5.586-2.5382-5.586-5.6479 0-3.10971 2.51-5.6479 5.586-5.6479 3.075 0 5.586 2.53819 5.586 5.6479 0 3.1097-2.511 5.6479-5.586 5.6479z"
      fill="url(#g)"/>
    <path
      d="m563.19 126.97c-4.006 0-7.248 3.294-7.248 7.329 0 1.748.632 3.328 1.646 4.588l-104.832 75.104.964 1.378 105.082-75.271c1.23.958 2.743 1.546 4.405 1.546 4.007 0 7.248-3.294 7.248-7.329 0-4.034-3.258-7.328-7.248-7.328zm0 12.993c-3.092 0-5.585-2.538-5.585-5.648 0-3.109 2.51-5.648 5.585-5.648 3.076 0 5.586 2.539 5.586 5.648 0 3.11-2.51 5.648-5.586 5.648z"
      fill="url(#h)"/>
  </g>
</svg>
